# Blender v2.73 (sub 0) OBJ File: ''
# www.blender.org
o Cube.001
v 0.522870 -6.720771 -0.201951
v 0.522870 7.381011 0.421909
v -0.381501 7.381010 0.421909
v -0.381500 -6.720774 -0.201951
v 0.522870 -6.743327 0.307978
v 0.522870 7.358456 0.931839
v -0.381501 7.358449 0.931838
v -0.381500 -6.743331 0.307978
v 0.483241 0.497346 -6.508586
v 0.483241 0.497346 7.606989
v -0.421129 0.497346 7.606988
v -0.421129 0.497346 -6.508589
v 0.483242 -0.013082 -6.508583
v 0.483241 -0.013082 7.606994
v -0.421130 -0.013082 7.606987
v -0.421129 -0.013082 -6.508587
v -6.993335 0.481857 -0.028789
v 7.119498 0.753166 -0.090662
v 7.125163 0.663651 0.809250
v -6.987671 0.392342 0.871123
v -6.983791 -0.025970 -0.079363
v 7.129043 0.245339 -0.141235
v 7.134703 0.155824 0.758676
v -6.978128 -0.115485 0.820549
vn 0.000000 -1.000000 0.000000
vn 0.000000 1.000000 -0.000000
vn -1.000000 0.000000 -0.000000
vn 0.000000 -0.000000 -1.000000
vn 1.000000 -0.000000 0.000000
vn -0.000000 0.000000 1.000000
vn 0.000000 -0.044200 0.999000
vn -0.000000 0.044200 -0.999000
vn 0.000000 -0.999000 -0.044200
vn -0.000000 0.999000 0.044200
vn 0.018700 -0.994900 -0.099100
vn -0.018700 0.994900 0.099100
vn 0.006300 -0.099000 0.995100
vn -0.999800 -0.019200 0.004400
vn -0.006300 0.099000 -0.995100
vn 0.999800 0.019200 -0.004400
s off
f 9//1 10//1 11//1 12//1
f 13//2 16//2 15//2 14//2
f 9//3 13//3 14//3 10//3
f 10//4 14//4 15//4 11//4
f 11//5 15//5 16//5 12//5
f 13//6 9//6 12//6 16//6
f 1//7 2//7 3//7 4//7
f 5//8 8//8 7//8 6//8
f 1//3 5//3 6//3 2//3
f 2//9 6//9 7//9 3//9
f 3//5 7//5 8//5 4//5
f 5//10 1//10 4//10 8//10
f 17//11 18//11 19//11 20//11
f 21//12 24//12 23//12 22//12
f 17//13 21//13 22//13 18//13
f 18//14 22//14 23//14 19//14
f 19//15 23//15 24//15 20//15
f 21//16 17//16 20//16 24//16
